<svg width="413" height="563" viewBox="0 0 413 563" fill="none" xmlns="http://www.w3.org/2000/svg">
<path d="M80.2 553V558H80.202L80.2 553ZM325.5 552.9V547.9H325.498L325.5 552.9ZM122.9 5V0H117.9V5H122.9ZM271.9 5H276.9V0H271.9V5ZM80.2 548C73.3802 548 67.9 542.457 67.9 535.7H57.9C57.9 547.943 67.8198 558 80.2 558V548ZM67.9 535.7V58.3H57.9V535.7H67.9ZM67.9 58.3C67.9 51.4802 73.4426 46 80.2 46V36C67.9574 36 57.9 45.9198 57.9 58.3H67.9ZM80.2 46H325.5V36H80.2V46ZM325.5 46C332.357 46 337.9 51.5801 337.9 58.3H347.9C347.9 46.0199 337.843 36 325.5 36V46ZM337.9 58.3V535.6H347.9V58.3H337.9ZM337.9 535.6C337.9 542.401 332.376 547.9 325.5 547.9V557.9C337.824 557.9 347.9 547.999 347.9 535.6H337.9ZM325.498 547.9L80.198 548L80.202 558L325.502 557.9L325.498 547.9ZM325.5 51C329.591 51 332.9 54.3139 332.9 58.3H342.9C342.9 48.6861 335.009 41 325.5 41V51ZM332.9 58.3V535.6H342.9V58.3H332.9ZM332.9 535.6C332.9 539.612 329.665 542.9 325.5 542.9V552.9C335.135 552.9 342.9 545.188 342.9 535.6H332.9ZM325.5 542.9H80.2V552.9H325.5V542.9ZM80.2 542.9C76.1878 542.9 72.9 539.665 72.9 535.5H62.9C62.9 545.135 70.6122 552.9 80.2 552.9V542.9ZM72.9 535.5V58.3H62.9V535.5H72.9ZM72.9 58.3C72.9 54.2614 76.1614 51 80.2 51V41C70.6386 41 62.9 48.7386 62.9 58.3H72.9ZM80.2 51H325.5V41H80.2V51ZM325.5 31H80.2V41H325.5V31ZM80.2 31C65.1386 31 52.9 43.2386 52.9 58.3H62.9C62.9 48.7614 70.6614 41 80.2 41V31ZM52.9 58.3V535.6H62.9V58.3H52.9ZM52.9 535.6C52.9 550.747 65.124 563 80.2 563V553C70.676 553 62.9 545.253 62.9 535.6H52.9ZM80.2 563H325.5V553H80.2V563ZM325.5 563C340.532 563 352.9 550.79 352.9 535.7H342.9C342.9 545.21 335.068 553 325.5 553V563ZM352.9 535.7V58.3H342.9V535.7H352.9ZM352.9 58.3C352.9 43.224 340.647 31 325.5 31V41C335.153 41 342.9 48.776 342.9 58.3H352.9ZM406.907 111.795L-20.9927 431.495L-15.0073 439.505L412.893 119.806L406.907 111.795ZM127.9 36V5H117.9V36H127.9ZM122.9 10H271.9V0H122.9V10ZM266.9 5V36H276.9V5H266.9Z" fill="#FF0000"/>
</svg>
