<svg width="482" height="482" viewBox="0 0 482 482" fill="none" xmlns="http://www.w3.org/2000/svg">
<path d="M328.97 32.76L327.021 37.3647L327.023 37.3651L328.97 32.76ZM449.25 153.04L444.645 154.987L444.645 154.988L449.25 153.04ZM449.24 328.97L444.635 327.021L444.635 327.023L449.24 328.97ZM328.96 449.25L327.013 444.645L327.012 444.645L328.96 449.25ZM153.03 449.24L154.979 444.635L154.977 444.635L153.03 449.24ZM32.75 328.96L37.3551 327.013L37.355 327.012L32.75 328.96ZM32.76 153.03L37.3647 154.979L37.3651 154.977L32.76 153.03ZM153.04 32.75L154.987 37.3551L154.988 37.355L153.04 32.75ZM148 113.77L151.076 117.712L151.076 117.712L148 113.77ZM329 110.76L326.055 114.801L326.057 114.802L329 110.76ZM241 20C270.847 20 299.784 25.8382 327.021 37.3647L330.919 28.1553C302.436 16.1018 272.173 10 241 10V20ZM327.023 37.3651C353.336 48.4928 376.967 64.4285 397.274 84.7355L404.346 77.6645C383.133 56.4515 358.424 39.7872 330.917 28.1549L327.023 37.3651ZM397.274 84.7355C417.582 105.043 433.517 128.674 444.645 154.987L453.855 151.093C442.223 123.586 425.558 98.8774 404.346 77.6645L397.274 84.7355ZM444.645 154.988C456.162 182.215 462 211.152 462 241H472C472 209.828 465.898 179.565 453.855 151.092L444.645 154.988ZM462 241C462 270.847 456.162 299.784 444.635 327.021L453.845 330.919C465.898 302.436 472 272.173 472 241H462ZM444.635 327.023C433.507 353.336 417.572 376.967 397.264 397.274L404.336 404.346C425.548 383.133 442.213 358.424 453.845 330.917L444.635 327.023ZM397.264 397.274C376.957 417.582 353.326 433.517 327.013 444.645L330.907 453.855C358.414 442.223 383.123 425.558 404.336 404.346L397.264 397.274ZM327.012 444.645C299.785 456.162 270.848 462 241 462V472C272.172 472 302.435 465.898 330.908 453.855L327.012 444.645ZM241 462C211.153 462 182.216 456.162 154.979 444.635L151.081 453.845C179.564 465.898 209.827 472 241 472V462ZM154.977 444.635C128.664 433.507 105.033 417.572 84.7255 397.264L77.6545 404.336C98.8674 425.548 123.576 442.213 151.083 453.845L154.977 444.635ZM84.7255 397.264C64.4185 376.957 48.4828 353.326 37.3551 327.013L28.1449 330.907C39.7772 358.414 56.4415 383.123 77.6545 404.336L84.7255 397.264ZM37.355 327.012C25.8383 299.785 20 270.848 20 241H10C10 272.172 16.1017 302.435 28.145 330.908L37.355 327.012ZM20 241C20 211.153 25.8382 182.216 37.3647 154.979L28.1553 151.081C16.1018 179.564 10 209.827 10 241H20ZM37.3651 154.977C48.4928 128.664 64.4285 105.033 84.7355 84.7255L77.6645 77.6545C56.4515 98.8674 39.7872 123.576 28.1549 151.083L37.3651 154.977ZM84.7355 84.7255C105.043 64.4185 128.674 48.4828 154.987 37.3551L151.093 28.1449C123.586 39.7772 98.8774 56.4415 77.6645 77.6545L84.7355 84.7255ZM154.988 37.355C182.215 25.8383 211.152 20 241 20V10C209.828 10 179.565 16.1017 151.092 28.145L154.988 37.355ZM241 0C107.899 0 0 107.899 0 241H10C10 113.421 113.421 10 241 10V0ZM0 241C0 374.101 107.899 482 241 482V472C113.421 472 10 368.579 10 241H0ZM241 482C374.101 482 482 374.101 482 241H472C472 368.579 368.579 472 241 472V482ZM482 241C482 107.899 374.101 0 241 0V10C368.579 10 472 113.421 472 241H482ZM169.718 94.0011C160.938 98.5045 152.642 103.804 144.924 109.828L151.076 117.712C158.298 112.076 166.062 107.115 174.282 102.899L169.718 94.0011ZM144.924 109.828C108.462 138.275 85 182.655 85 232.5H95C95 185.865 116.938 144.345 151.076 117.712L144.924 109.828ZM85 232.5C85 318.381 154.619 388 240.5 388V378C160.141 378 95 312.859 95 232.5H85ZM240.5 388C326.381 388 396 318.381 396 232.5H386C386 312.859 320.859 378 240.5 378V388ZM396 232.5C396 180.794 370.76 134.979 331.943 106.718L326.057 114.802C362.4 141.261 386 184.126 386 232.5H396ZM331.945 106.719C325.733 102.192 319.173 98.1222 312.316 94.5386L307.684 103.401C314.107 106.758 320.247 110.568 326.055 114.801L331.945 106.719ZM236 54.9731L235 240.973L245 241.027L246 55.0269L236 54.9731Z" fill="#FF2E33"/>
</svg>
