<svg width="229" height="259" viewBox="0 0 229 259" fill="none" xmlns="http://www.w3.org/2000/svg">
<path fill-rule="evenodd" clip-rule="evenodd" d="M219 258V0H229V258H219ZM57.6525 63.4185L11.6655 109.406L4.59447 102.334L49.9371 56.9918L0.439896 15.7618L6.84012 8.07822L57.0375 49.8914L103.334 3.59447L110.406 10.6655L64.7529 56.3182L114.13 97.4482L107.73 105.132L57.6525 63.4185ZM176 258V47H186V258H176ZM133 258V93H143V258H133ZM89 259V136H99V259H89ZM46 259V183H56V259H46ZM2.00001 258V221H12V258H2.00001Z" fill="#FF0000"/>
</svg>
