<svg width="301" height="532" viewBox="0 0 301 532" fill="none" xmlns="http://www.w3.org/2000/svg">
<path d="M27.35 522C17.78 522 10 514.22 10 504.65V27.35C10 17.78 17.78 10 27.35 10H272.66C282.23 10 290.01 17.78 290.01 27.35V504.66C290.01 514.23 282.23 522.01 272.66 522.01H27.35V522Z" fill="white"/>
<path d="M272.65 15C279.46 15 285 20.54 285 27.35V504.66C285 511.47 279.46 517.01 272.65 517.01H27.35C20.54 517 15 511.46 15 504.65V27.35C15 20.54 20.54 15 27.35 15H272.65ZM272.65 5H27.35C15.01 5 5 15.01 5 27.35V504.66C5 516.99 15.01 527 27.35 527H272.66C285 527 295.01 516.99 295.01 504.65V27.35C295 15.01 284.99 5 272.65 5Z" fill="#FF0000"/>
<path d="M85.44 41C74.17 41 65 31.83 65 20.56V10H236V20.56C236 31.83 226.83 41 215.56 41H85.44Z" fill="white"/>
<path d="M231 15V20.56C231 29.07 224.07 36 215.56 36H85.44C76.93 36 70 29.07 70 20.56V15H231ZM241 5H60V20.56C60 34.61 71.39 46 85.44 46H215.56C229.61 46 241 34.61 241 20.56V5Z" fill="#FF0000"/>
<path d="M12 170L53 135L69 179L98 168L124 222.41C124 222.41 137 239 156 258" fill="white"/>
<path d="M27.35 522H32.35V517H27.35V522ZM27.35 522.01H22.35V527.01H27.35V522.01ZM27.35 517.01L27.3427 522.01H27.35V517.01ZM295.01 27.35H300.01V27.3459L295.01 27.35ZM65 10V5H60V10H65ZM236 10H241V5H236V10ZM231 15H236V10H231V15ZM70 15V10H65V15H70ZM241 5H246V0H241V5ZM60 5V0H55V5H60ZM53 135L57.699 133.291L55.2357 126.517L49.7537 131.197L53 135ZM69 179L64.301 180.709L66.0334 185.473L70.7733 183.675L69 179ZM98 168L102.511 165.844L100.528 161.694L96.2267 163.325L98 168ZM124 222.41L119.489 224.566L119.726 225.062L120.064 225.494L124 222.41ZM27.35 517C20.5414 517 15 511.459 15 504.65H5C5 516.981 15.0186 527 27.35 527V517ZM15 504.65V27.35H5V504.65H15ZM15 27.35C15 20.5414 20.5414 15 27.35 15V5C15.0186 5 5 15.0186 5 27.35H15ZM27.35 15H272.66V5H27.35V15ZM272.66 15C279.469 15 285.01 20.5414 285.01 27.35H295.01C295.01 15.0186 284.991 5 272.66 5V15ZM285.01 27.35V504.66H295.01V27.35H285.01ZM285.01 504.66C285.01 511.469 279.469 517.01 272.66 517.01V527.01C284.991 527.01 295.01 516.991 295.01 504.66H285.01ZM272.66 517.01H27.35V527.01H272.66V517.01ZM32.35 522.01V522H22.35V522.01H32.35ZM272.65 20C276.699 20 280 23.3014 280 27.35H290C290 17.7786 282.221 10 272.65 10V20ZM280 27.35V504.66H290V27.35H280ZM280 504.66C280 508.709 276.699 512.01 272.65 512.01V522.01C282.221 522.01 290 514.231 290 504.66H280ZM272.65 512.01H27.35V522.01H272.65V512.01ZM27.3573 512.01C23.3016 512.004 20 508.697 20 504.65H10C10 514.223 17.7784 521.996 27.3427 522.01L27.3573 512.01ZM20 504.65V27.35H10V504.65H20ZM20 27.35C20 23.3014 23.3014 20 27.35 20V10C17.7786 10 10 17.7786 10 27.35H20ZM27.35 20H272.65V10H27.35V20ZM272.65 0H27.35V10H272.65V0ZM27.35 0C12.2486 0 0 12.2486 0 27.35H10C10 17.7714 17.7714 10 27.35 10V0ZM0 27.35V504.66H10V27.35H0ZM0 504.66C0 519.753 12.25 532 27.35 532V522C17.77 522 10 514.227 10 504.66H0ZM27.35 532H272.66V522H27.35V532ZM272.66 532C287.761 532 300.01 519.751 300.01 504.65H290.01C290.01 514.229 282.239 522 272.66 522V532ZM300.01 504.65V27.35H290.01V504.65H300.01ZM300.01 27.3459C299.998 12.2485 287.752 0 272.65 0V10C282.228 10 290.002 17.7715 290.01 27.354L300.01 27.3459ZM85.44 36C76.9314 36 70 29.0686 70 20.56H60C60 34.5914 71.4086 46 85.44 46V36ZM70 20.56V10H60V20.56H70ZM65 15H236V5H65V15ZM231 10V20.56H241V10H231ZM231 20.56C231 29.0686 224.069 36 215.56 36V46C229.591 46 241 34.5914 241 20.56H231ZM215.56 36H85.44V46H215.56V36ZM226 15V20.56H236V15H226ZM226 20.56C226 26.3086 221.309 31 215.56 31V41C226.831 41 236 31.8314 236 20.56H226ZM215.56 31H85.44V41H215.56V31ZM85.44 31C79.6914 31 75 26.3086 75 20.56H65C65 31.8314 74.1686 41 85.44 41V31ZM75 20.56V15H65V20.56H75ZM70 20H231V10H70V20ZM241 0H60V10H241V0ZM55 5V20.56H65V5H55ZM55 20.56C55 37.3714 68.6286 51 85.44 51V41C74.1514 41 65 31.8486 65 20.56H55ZM85.44 51H215.56V41H85.44V51ZM215.56 51C232.371 51 246 37.3714 246 20.56H236C236 31.8486 226.849 41 215.56 41V51ZM246 20.56V5H236V20.56H246ZM15.2463 173.803L56.2463 138.803L49.7537 131.197L8.75369 166.197L15.2463 173.803ZM48.301 136.709L64.301 180.709L73.699 177.291L57.699 133.291L48.301 136.709ZM70.7733 183.675L99.7733 172.675L96.2267 163.325L67.2267 174.325L70.7733 183.675ZM93.4886 170.156L119.489 224.566L128.511 220.254L102.511 165.844L93.4886 170.156ZM124 222.41C120.064 225.494 120.065 225.494 120.065 225.495C120.065 225.495 120.066 225.495 120.066 225.496C120.067 225.497 120.068 225.498 120.069 225.499C120.071 225.502 120.074 225.506 120.078 225.511C120.085 225.52 120.096 225.534 120.11 225.552C120.137 225.587 120.178 225.638 120.23 225.704C120.335 225.837 120.49 226.031 120.691 226.283C121.095 226.788 121.688 227.524 122.459 228.465C123.998 230.347 126.245 233.048 129.089 236.345C134.773 242.937 142.857 251.928 152.464 261.536L159.536 254.464C150.143 245.072 142.227 236.268 136.661 229.815C133.88 226.589 131.689 223.955 130.198 222.133C129.452 221.222 128.882 220.514 128.5 220.037C128.309 219.798 128.166 219.617 128.071 219.498C128.024 219.438 127.989 219.393 127.966 219.365C127.955 219.35 127.946 219.34 127.941 219.333C127.939 219.33 127.937 219.328 127.936 219.327C127.936 219.326 127.935 219.326 127.935 219.326C127.935 219.326 127.935 219.326 127.935 219.326C127.935 219.326 127.936 219.326 124 222.41Z" fill="#FF0000"/>
</svg>
