<svg width="334" height="449" viewBox="0 0 334 449" fill="none" xmlns="http://www.w3.org/2000/svg">
<path d="M68.1 288.6C66.5 280.1 67.1 270.2 68.8 260.7C70.5 251.3 73.2 242.4 75.5 235.9C76.6 232.7 77.7 230 78.4 228.2C78.8 227.3 79.1 226.6 79.3 226.1C79.4 225.9 79.5 225.7 79.5 225.6L79.6 225.5C79.6 225.5 79.3 225.4 75.1 223.4C70.9 221.4 70.6 221.3 70.6 221.3C70.6 221.3 70.6 221.3 70.6 221.4C70.6 221.4 70.6 221.5 70.5 221.6C70.4 221.7 70.3 221.9 70.2 222.2C70 222.7 69.6 223.5 69.2 224.5C68.4 226.5 67.3 229.3 66.1 232.7C63.7 239.5 60.8 248.9 59 259C57.2 269.1 56.4 280.2 58.3 290.5C60.3 300.8 65.1 310.5 74.8 316.9L80.3 308.6C73.4 304 69.7 297 68.1 288.6Z" />
<path d="M317.6 209.8C322.5 199 325.3 186.9 325.3 174.2C325.3 154.5 318.6 136.2 307.3 121.7L240.2 34.9L236 29.5L232.1 35.1L210.7 65.6L164.7 5.9L160.5 0.5L156.6 6.1L34.7 180.1C12.9 208.3 0 243.6 0 282C0 374.3 74.7 449 167 449C259.3 449 334 374.3 334 282C334 256.1 328.1 231.6 317.6 209.8ZM211.6 99.4L217.7 90.8L222 84.6L223.7 82.2L237 63.3L291.6 134C300.6 145.6 305.4 159.5 305.4 174.2C305.4 178.4 304 186.3 304.1 186.4C304.2 186.5 304.2 186.5 304.1 186.4C304.1 186.9 299.5 204.4 295.7 209.4C295.7 209.4 294.2 212 292.9 212.9C280.9 229.4 261.5 240.1 239.6 240.1C203.3 240.1 173.7 210.5 173.7 174.2C173.7 159.5 178.4 145.6 187.5 134L187.8 133.6L187.9 133.5V133.4L211.6 99.4ZM271 386C243.2 413.8 206.3 429 167 429C127.7 429 90.8 413.7 63 386C35.2 358.2 20 321.3 20 282C20 249.1 30.6 218.1 50.7 192.2L51 191.8V191.6L161.3 34.3L198.8 82.8L171.5 121.7C171.5 121.8 171.4 121.8 171.4 121.9C160.2 136.4 153.7 154.5 153.7 174.2C153.7 221.5 192.1 260.1 239.5 260.1C265.5 260.1 288.9 248.5 304.7 230.1C310.9 246.5 314.1 264 314.1 282C314 321.3 298.7 358.2 271 386Z" />
<path d="M42.9 185.9L39 183.1L42.7 186L42.8 186.1V186L42.9 185.9Z" />
<path d="M299.4 127.9H299.5L301.3 126.5L299.4 127.9Z" />
</svg>
