<svg width="335" height="321" viewBox="0 0 335 321" fill="none" xmlns="http://www.w3.org/2000/svg">
<path d="M146.9 137.5V142.5H149.808L151.246 139.973L146.9 137.5ZM209 75.5L204 75.5V75.5H209ZM209 227L213.987 227.356L214 227.178V227H209ZM145.1 178.5L149.069 175.459L147.56 173.49L145.079 173.5L145.1 178.5ZM96.9 178.7H91.9V183.721L96.9207 183.7L96.9 178.7ZM96.9 137.5V132.5H91.9V137.5H96.9ZM167.5 320.5C259.521 320.5 334.5 249.071 334.5 160.5H324.5C324.5 243.137 254.419 310.5 167.5 310.5V320.5ZM334.5 160.5C334.5 71.9286 259.521 0.5 167.5 0.5V10.5C254.419 10.5 324.5 77.8631 324.5 160.5H334.5ZM167.5 0.5C75.4789 0.5 0.5 71.9286 0.5 160.5H10.5C10.5 77.8631 80.5809 10.5 167.5 10.5V0.5ZM0.5 160.5C0.5 249.071 75.4789 320.5 167.5 320.5V310.5C80.5809 310.5 10.5 243.137 10.5 160.5H0.5ZM146.9 137.5C151.246 139.973 151.246 139.973 151.246 139.973C151.246 139.972 151.246 139.972 151.246 139.971C151.247 139.97 151.248 139.968 151.25 139.966C151.253 139.96 151.258 139.952 151.264 139.94C151.277 139.917 151.297 139.882 151.324 139.835C151.378 139.741 151.459 139.6 151.566 139.413C151.781 139.041 152.099 138.491 152.51 137.785C153.333 136.374 154.53 134.341 156.019 131.866C158.998 126.914 163.134 120.212 167.772 113.194C172.417 106.164 177.523 98.882 182.442 92.7442C187.466 86.4761 191.94 81.8596 195.296 79.7109L189.904 71.2891C185.06 74.3904 179.722 80.1489 174.639 86.4902C169.452 92.9618 164.158 100.523 159.428 107.681C154.691 114.851 150.477 121.679 147.45 126.712C145.935 129.23 144.715 131.302 143.872 132.748C143.45 133.471 143.123 134.037 142.9 134.425C142.788 134.618 142.703 134.767 142.645 134.869C142.616 134.919 142.594 134.958 142.578 134.985C142.571 134.998 142.565 135.008 142.561 135.015C142.559 135.019 142.557 135.022 142.556 135.024C142.556 135.025 142.555 135.026 142.555 135.026C142.554 135.027 142.554 135.027 146.9 137.5ZM195.296 79.7109C199.137 77.2516 201.637 76.2778 203.125 75.9602C204.535 75.6592 204.634 76.017 204.254 75.7734C203.949 75.5781 203.923 75.3601 203.971 75.5143C203.989 75.5712 203.999 75.631 204.004 75.6658C204.005 75.6793 204.004 75.677 204.003 75.6535C204.003 75.6415 204.002 75.6233 204.001 75.5982C204.001 75.5856 204.001 75.5712 204 75.5549C204 75.5467 204 75.5381 204 75.529C204 75.5244 204 75.5197 204 75.5149C204 75.5125 204 75.5087 204 75.5075C204 75.5038 204 75.5 209 75.5C214 75.5 214 75.4961 214 75.4922C214 75.4909 214 75.4869 214 75.4842C214 75.4787 214 75.4731 214 75.4672C214 75.4556 214 75.4431 214 75.43C213.999 75.4036 213.999 75.3743 213.998 75.3422C213.996 75.278 213.993 75.2021 213.989 75.1157C213.979 74.9436 213.963 74.726 213.932 74.4729C213.872 73.9745 213.755 73.2959 213.516 72.5326C213.052 71.0462 212.001 68.8594 209.646 67.3516C207.216 65.7955 204.24 65.4971 201.038 66.1804C197.913 66.8472 194.263 68.4984 189.904 71.2891L195.296 79.7109ZM204 75.5V227H214V75.5H204ZM209 227C204.013 226.644 204.013 226.638 204.014 226.633C204.014 226.631 204.014 226.625 204.014 226.621C204.015 226.614 204.015 226.607 204.016 226.599C204.017 226.585 204.018 226.571 204.02 226.557C204.022 226.529 204.025 226.501 204.028 226.475C204.034 226.423 204.04 226.373 204.047 226.327C204.061 226.234 204.078 226.15 204.098 226.072C204.136 225.919 204.19 225.767 204.27 225.618C204.467 225.251 204.741 225.056 204.852 225.01C204.874 225 204.3 225.246 202.628 225.005C200.955 224.763 198.415 224.063 194.725 222.429L190.675 231.571C198.817 235.179 204.583 235.955 208.698 234.24C210.909 233.319 212.295 231.811 213.08 230.35C213.453 229.655 213.67 229.011 213.798 228.502C213.862 228.246 213.905 228.019 213.934 227.827C213.949 227.731 213.96 227.643 213.968 227.565C213.973 227.525 213.976 227.488 213.979 227.454C213.981 227.436 213.982 227.419 213.984 227.403C213.984 227.395 213.985 227.387 213.986 227.379C213.986 227.375 213.986 227.37 213.986 227.368C213.987 227.362 213.987 227.356 209 227ZM194.725 222.429C191.607 221.047 187.181 217.66 182.015 212.82C176.974 208.097 171.634 202.383 166.724 196.817C161.824 191.263 157.404 185.916 154.207 181.954C152.609 179.974 151.32 178.344 150.432 177.212C149.988 176.646 149.645 176.204 149.414 175.906C149.298 175.757 149.211 175.643 149.153 175.568C149.124 175.53 149.102 175.502 149.088 175.484C149.081 175.475 149.076 175.468 149.073 175.464C149.071 175.462 149.07 175.46 149.069 175.46C149.069 175.459 149.069 175.459 149.069 175.459C149.069 175.459 149.069 175.459 145.1 178.5C141.131 181.541 141.132 181.542 141.132 181.542C141.132 181.543 141.133 181.543 141.134 181.544C141.135 181.546 141.137 181.548 141.139 181.551C141.143 181.557 141.15 181.565 141.158 181.576C141.175 181.598 141.199 181.629 141.231 181.671C141.294 181.753 141.387 181.873 141.508 182.03C141.751 182.343 142.106 182.8 142.562 183.382C143.475 184.546 144.794 186.213 146.425 188.234C149.683 192.272 154.201 197.737 159.226 203.433C164.241 209.117 169.813 215.091 175.178 220.117C180.419 225.028 185.893 229.453 190.675 231.571L194.725 222.429ZM145.079 173.5L96.8793 173.7L96.9207 183.7L145.121 183.5L145.079 173.5ZM101.9 178.7V137.5H91.9V178.7H101.9ZM54.3907 271.675L287.391 56.6746L280.609 49.3254L47.6093 264.325L54.3907 271.675ZM96.9 142.5H146.9V132.5H96.9V142.5Z" fill="#FF0000"/>
</svg>
